<?xml version="1.0" encoding="UTF-8" standalone="no"?>
<!DOCTYPE svg PUBLIC "-//W3C//DTD SVG 1.1//EN" "http://www.w3.org/Graphics/SVG/1.1/DTD/svg11.dtd">
<svg width="100%" height="100%" viewBox="0 0 2048 2048" version="1.1" xmlns="http://www.w3.org/2000/svg" xmlns:xlink="http://www.w3.org/1999/xlink" xml:space="preserve" xmlns:serif="http://www.serif.com/" style="fill-rule:evenodd;clip-rule:evenodd;stroke-linecap:round;stroke-linejoin:round;stroke-miterlimit:1.5;">
    <g transform="matrix(1.007992,0,0,1.523242,5.546444,-115.932684)">
        <path d="M2000.563,405.47L2000.563,1063.28C2000.563,1241.791 1781.552,1386.719 1511.793,1386.719L534.254,1386.719C264.495,1386.719 45.484,1241.791 45.484,1063.28L45.484,405.47C45.484,226.959 264.495,82.031 534.254,82.031L1511.793,82.031C1781.552,82.031 2000.563,226.959 2000.563,405.47Z" style="fill:rgb(28,114,104);stroke:white;stroke-width:7.59px;"/>
    </g>
    <g id="Flat-vector-graphic-of-the-letter-R-rendered-in-a-crisp-and-smooth-style--featuring-a-clean-design-and-simple-vector-aesthetic--bold-blue-color--minimalist--high-contrast" serif:id="Flat vector graphic of the letter R rendered in a crisp and smooth style, featuring a clean design and simple vector aesthetic, bold blue color, minimalist, high contrast" transform="matrix(3.034447,0,0,3.034447,-1164.539521,-1154.787428)">
        <path id="white-curve" d="M836.329,457.965C855.257,466.173 863.401,468.871 885.879,487.041C896.24,496.203 903.32,502.556 914.892,519.22C924.675,534.2 924.272,534.187 931.743,550.399C933.231,554.465 934.718,558.532 936.206,562.598C950.632,614.342 943.572,646.643 928.709,682.6C919.222,700.74 918.961,700.385 906.992,716.933C883.031,743.413 879.63,746.233 847.554,763.618C842.591,765.734 837.627,767.851 832.663,769.967L831.485,770.462C827.926,772.072 824.367,773.682 820.808,775.292C815.509,773.726 801.87,781.737 767.499,781.686C732.843,781.676 698.186,781.667 663.53,781.657L661.478,782.52C657.188,781.494 626.247,780.78 626.106,783.4C625.065,802.698 627.783,993.302 624.549,993.679C606.837,995.746 570.961,974.663 566.704,972.161C554.914,965.232 538.498,948.973 536.243,946.739C498.442,903.601 501.376,883.915 501.91,780.502C501.935,775.666 502.067,750.248 519.978,722.809C536.561,697.407 565.026,682.344 569.669,679.887C619.132,661.669 658.039,672.681 771.493,670.039C834.357,668.575 847.653,570.314 775.54,559.148C757.511,556.357 757.454,558.616 547.501,558.788C539.179,558.794 526.002,559.528 524.446,557.548C517.555,548.775 438.559,448.212 438.791,447.508C439.373,445.741 440.344,446.658 764.5,446.513C804.091,446.495 817.307,451.896 836.329,457.965Z" style="fill:white;"/>
        <path id="white-curve1" serif:id="white-curve" d="M826.593,782.444L828.28,784.667C832.092,789.554 835.904,794.441 839.717,799.328C882.06,852.528 922.734,904.953 929.895,914.183C957.769,950.707 994.712,993.532 989.516,993.589C976.609,993.731 833.035,995.313 828.181,992.931L829.5,992.058L830.5,991.796L831.079,991.5C830.982,990.882 830.252,986.218 827.135,984.756C826.932,984.661 826.276,984.353 824.5,985.691L823.005,986.887C818.884,981.593 818.794,981.835 770.856,921.226C766.22,915.365 719.808,856.685 713.092,847.824C712.093,846.501 711.094,845.178 710.095,843.856C710.89,843.628 710.764,842.08 711.56,841.852C732.282,835.911 733.92,841.035 777.258,821.085C788.27,814.742 788.159,814.953 798.575,807.605C803.293,804.104 803.139,804.271 807.614,800.636C809.732,798.749 811.851,796.862 813.97,794.975L818.151,791.16C820.975,787.999 820.898,788.207 826.593,782.444Z" style="fill:white;"/>
        <path d="M820.808,775.292L826.593,782.444C820.898,788.207 820.975,787.999 818.151,791.16L813.97,794.975L812.5,793.201C809.255,792.539 801.121,796.91 807.614,800.636C803.139,804.271 803.293,804.104 798.575,807.605C788.159,814.953 788.27,814.742 777.258,821.085C733.92,841.035 732.282,835.911 711.56,841.852C710.764,842.08 710.89,843.628 710.095,843.856C706.264,838.903 674.861,798.302 661.478,782.52L663.53,781.657C698.186,781.667 732.843,781.676 767.499,781.686C801.87,781.737 815.509,773.726 820.808,775.292Z" style="fill:rgb(29,46,56);"/>
    </g>
</svg>
