<svg width="64" height="64" viewBox="0 0 64 64" fill="none" xmlns="http://www.w3.org/2000/svg">
  <path d="M20 50C20 48.8954 20.8954 48 22 48H42C43.1046 48 44 48.8954 44 50V54C44 55.1046 43.1046 56 42 56H22C20.8954 56 20 55.1046 20 54V50Z" fill="#1C7268"/>
  <path d="M24 36C24 34.8954 24.8954 34 26 34H38C39.1046 34 40 34.8954 40 36V48H24V36Z" fill="#1C7268"/>
  <ellipse cx="32" cy="34" rx="8" ry="3" fill="#1C7268"/>
  <ellipse cx="32" cy="33" rx="12" ry="5" fill="#E8703A" opacity="0.2"/>
  <ellipse cx="32" cy="33" rx="9" ry="4" fill="#E8703A" opacity="0.3"/>
  <path d="M32 32 Q30 28 30 24 Q30 20 32 18" stroke="#E8703A" stroke-width="4" stroke-linecap="round" opacity="0.4" fill="none"/>
  <path d="M32 32 Q34 28 34 24 Q34 20 32 18" stroke="#E8703A" stroke-width="4" stroke-linecap="round" opacity="0.4" fill="none"/>
  <path d="M32 30 Q28 26 28 22 Q28 20 30 19 Q32 18 32 18 Q32 18 34 19 Q36 20 36 22 Q36 26 32 30 Z" fill="#E8703A" opacity="0.7"/>
  <ellipse cx="32" cy="19" rx="5" ry="7" fill="#1C7268"/>
  <path d="M27 19 Q27 16 32 16 Q37 16 37 19 L37 22 Q37 23 32 23 Q27 23 27 22 Z" fill="#1C7268"/>
  <circle cx="32" cy="12" r="7" fill="#1C7268"/>
  <path d="M25 11 Q25 7 32 6 Q39 7 39 11" stroke="#E8703A" stroke-width="2.5" stroke-linecap="round" fill="none"/>
  <ellipse cx="32" cy="7" rx="6" ry="2.5" fill="#E8703A"/>
  <circle cx="32" cy="8.5" r="2.5" fill="#F8F6F3"/>
  <circle cx="32" cy="8.5" r="1.5" fill="#E8703A"/>
  <circle cx="32.8" cy="7.8" r="0.6" fill="#F8F6F3" opacity="0.8"/>
  <ellipse cx="29" cy="12" rx="1.5" ry="2" fill="#F8F6F3"/>
  <ellipse cx="35" cy="12" rx="1.5" ry="2" fill="#F8F6F3"/>
  <circle cx="29" cy="12.5" r="0.8" fill="#1D2E38"/>
  <circle cx="35" cy="12.5" r="0.8" fill="#1D2E38"/>
  <circle cx="29.4" cy="12.2" r="0.3" fill="#F8F6F3"/>
  <circle cx="35.4" cy="12.2" r="0.3" fill="#F8F6F3"/>
  <path d="M27 10 Q29 9.5 30.5 10" stroke="#1C7268" stroke-width="0.8" stroke-linecap="round" fill="none" opacity="0.6"/>
  <path d="M33.5 10 Q35 9.5 37 10" stroke="#1C7268" stroke-width="0.8" stroke-linecap="round" fill="none" opacity="0.6"/>
  <ellipse cx="32" cy="13.5" rx="0.8" ry="1" fill="#1C7268" opacity="0.3"/>
  <path d="M29 15 Q32 17 35 15" stroke="#F8F6F3" stroke-width="1.2" stroke-linecap="round" fill="none"/>
  <ellipse cx="32" cy="17" rx="1.2" ry="1.8" fill="#1C7268" opacity="0.4"/>
  <g opacity="0.9">
    <path d="M10 20L11.5 23L14.5 24.5L11.5 26L10 29L8.5 26L5.5 24.5L8.5 23L10 20Z" fill="#E8703A"/>
    <path d="M52 14L53 16L55 17L53 18L52 20L51 18L49 17L51 16L52 14Z" fill="#E8703A"/>
    <path d="M48 28L49 30L51 31L49 32L48 34L47 32L45 31L47 30L48 28Z" fill="#1C7268"/>
    <path d="M16 10L16.5 11.5L18 12L16.5 12.5L16 14L15.5 12.5L14 12L15.5 11.5L16 10Z" fill="#E8703A" opacity="0.7"/>
  </g>
  <rect x="24" y="40" width="16" height="1.5" rx="0.75" fill="#E8703A" opacity="0.6"/>
  <rect x="24" y="44" width="16" height="1" rx="0.5" fill="#E8703A" opacity="0.4"/>
  <path d="M20 52 Q17 52 17 50 Q17 48 20 48" stroke="#1C7268" stroke-width="2" fill="none" opacity="0.7"/>
</svg>